  0
SECTION
  2
HEADER
  9
$ANGBASE
  50
0.0
  9
$ANGDIR
  70
  1
  9
$MEASUREMENT
  70
0
  0
ENDSEC
  0
SECTION
  2
TABLES
  0
TABLE
  2
LTYPE
  70
1
  0
LTYPE
  2
CONTINUOUS
  70
0
  3
Solid line
  72
65
  73
0
  40
0.0
  0
ENDTAB
  0
TABLE
  2
STYLE
  70
4
  0
STYLE
  2
KICAD
  70
0
  40
0
  41
1
  42
1
  50
0
  71
0
  3
isocp.shx
  0
STYLE
  2
KICADB
  70
0
  40
0
  41
1
  42
1
  50
0
  71
0
  3
isocp.shx
  0
STYLE
  2
KICADI
  70
0
  40
0
  41
1
  42
1
  50
15
  71
0
  3
isocp.shx
  0
STYLE
  2
KICADBI
  70
0
  40
0
  41
1
  42
1
  50
15
  71
0
  3
isocp.shx
  0
ENDTAB
  0
TABLE
  2
LAYER
  70
30
  0
LAYER
  2
BLACK
  70
0
  62
7
  6
CONTINUOUS
  0
LAYER
  2
GRAY1
  70
0
  62
251
  6
CONTINUOUS
  0
LAYER
  2
GRAY2
  70
0
  62
8
  6
CONTINUOUS
  0
LAYER
  2
GRAY3
  70
0
  62
9
  6
CONTINUOUS
  0
LAYER
  2
WHITE
  70
0
  62
7
  6
CONTINUOUS
  0
LAYER
  2
LYELLOW
  70
0
  62
51
  6
CONTINUOUS
  0
LAYER
  2
BLUE1
  70
0
  62
178
  6
CONTINUOUS
  0
LAYER
  2
GREEN1
  70
0
  62
98
  6
CONTINUOUS
  0
LAYER
  2
CYAN1
  70
0
  62
138
  6
CONTINUOUS
  0
LAYER
  2
RED1
  70
0
  62
18
  6
CONTINUOUS
  0
LAYER
  2
MAGENTA1
  70
0
  62
228
  6
CONTINUOUS
  0
LAYER
  2
BROWN1
  70
0
  62
58
  6
CONTINUOUS
  0
LAYER
  2
BLUE2
  70
0
  62
5
  6
CONTINUOUS
  0
LAYER
  2
GREEN2
  70
0
  62
3
  6
CONTINUOUS
  0
LAYER
  2
CYAN2
  70
0
  62
4
  6
CONTINUOUS
  0
LAYER
  2
RED2
  70
0
  62
1
  6
CONTINUOUS
  0
LAYER
  2
MAGENTA2
  70
0
  62
6
  6
CONTINUOUS
  0
LAYER
  2
BROWN2
  70
0
  62
54
  6
CONTINUOUS
  0
LAYER
  2
BLUE3
  70
0
  62
171
  6
CONTINUOUS
  0
LAYER
  2
GREEN3
  70
0
  62
91
  6
CONTINUOUS
  0
LAYER
  2
CYAN3
  70
0
  62
131
  6
CONTINUOUS
  0
LAYER
  2
RED3
  70
0
  62
11
  6
CONTINUOUS
  0
LAYER
  2
MAGENTA3
  70
0
  62
221
  6
CONTINUOUS
  0
LAYER
  2
YELLOW3
  70
0
  62
2
  6
CONTINUOUS
  0
LAYER
  2
BLUE4
  70
0
  62
5
  6
CONTINUOUS
  0
LAYER
  2
GREEN4
  70
0
  62
3
  6
CONTINUOUS
  0
LAYER
  2
CYAN4
  70
0
  62
4
  6
CONTINUOUS
  0
LAYER
  2
RED4
  70
0
  62
1
  6
CONTINUOUS
  0
LAYER
  2
MAGENTA4
  70
0
  62
6
  6
CONTINUOUS
  0
LAYER
  2
YELLOW4
  70
0
  62
2
  6
CONTINUOUS
  0
ENDTAB
  0
ENDSEC
  0
SECTION
  2
ENTITIES
0
LINE
8
Black
10
137.275
20
-147.881
11
135.825
21
-147.881
0
LINE
8
Black
10
135.825
20
-147.881
11
135.825
21
-146.731
0
LINE
8
Black
10
135.825
20
-146.731
11
137.275
21
-146.731
0
LINE
8
Black
10
137.275
20
-146.731
11
137.275
21
-147.881
0
LINE
8
Black
10
160.542
20
-147.545
11
159.092
21
-147.545
0
LINE
8
Black
10
159.092
20
-147.545
11
159.092
21
-146.395
0
LINE
8
Black
10
159.092
20
-146.395
11
160.542
21
-146.395
0
LINE
8
Black
10
160.542
20
-146.395
11
160.542
21
-147.545
0
LINE
8
Black
10
157.245
20
-147.517
11
155.795
21
-147.517
0
LINE
8
Black
10
155.795
20
-147.517
11
155.795
21
-146.367
0
LINE
8
Black
10
155.795
20
-146.367
11
157.245
21
-146.367
0
LINE
8
Black
10
157.245
20
-146.367
11
157.245
21
-147.517
0
LINE
8
Black
10
154.283
20
-147.489
11
152.833
21
-147.489
0
LINE
8
Black
10
152.833
20
-147.489
11
152.833
21
-146.339
0
LINE
8
Black
10
152.833
20
-146.339
11
154.283
21
-146.339
0
LINE
8
Black
10
154.283
20
-146.339
11
154.283
21
-147.489
0
LINE
8
Black
10
174.897
20
-147.376
11
173.897
21
-147.376
0
LINE
8
Black
10
173.897
20
-147.376
11
173.897
21
-146.776
0
LINE
8
Black
10
173.897
20
-146.776
11
174.897
21
-146.776
0
LINE
8
Black
10
174.897
20
-146.776
11
174.897
21
-147.376
0
LINE
8
Black
10
177.197
20
-146.426
11
176.197
21
-146.426
0
LINE
8
Black
10
176.197
20
-146.426
11
176.197
21
-145.826
0
LINE
8
Black
10
176.197
20
-145.826
11
177.197
21
-145.826
0
LINE
8
Black
10
177.197
20
-145.826
11
177.197
21
-146.426
0
LINE
8
Black
10
195.284
20
-145.139
11
194.329
21
-146.093
0
LINE
8
Black
10
194.329
20
-146.093
11
194.047
21
-145.811
0
LINE
8
Black
10
194.047
20
-145.811
11
195.001
21
-144.856
0
LINE
8
Black
10
195.001
20
-144.856
11
195.284
21
-145.139
0
LINE
8
Black
10
137.275
20
-146.081
11
135.825
21
-146.081
0
LINE
8
Black
10
135.825
20
-146.081
11
135.825
21
-144.931
0
LINE
8
Black
10
135.825
20
-144.931
11
137.275
21
-144.931
0
LINE
8
Black
10
137.275
20
-144.931
11
137.275
21
-146.081
0
LINE
8
Black
10
198.837
20
-144.944
11
197.918
21
-145.864
0
LINE
8
Black
10
197.918
20
-145.864
11
197.229
21
-145.174
0
LINE
8
Black
10
197.229
20
-145.174
11
198.148
21
-144.255
0
LINE
8
Black
10
198.148
20
-144.255
11
198.837
21
-144.944
0
LINE
8
Black
10
160.542
20
-145.745
11
159.092
21
-145.745
0
LINE
8
Black
10
159.092
20
-145.745
11
159.092
21
-144.595
0
LINE
8
Black
10
159.092
20
-144.595
11
160.542
21
-144.595
0
LINE
8
Black
10
160.542
20
-144.595
11
160.542
21
-145.745
0
LINE
8
Black
10
157.245
20
-145.717
11
155.795
21
-145.717
0
LINE
8
Black
10
155.795
20
-145.717
11
155.795
21
-144.567
0
LINE
8
Black
10
155.795
20
-144.567
11
157.245
21
-144.567
0
LINE
8
Black
10
157.245
20
-144.567
11
157.245
21
-145.717
0
LINE
8
Black
10
154.283
20
-145.689
11
152.833
21
-145.689
0
LINE
8
Black
10
152.833
20
-145.689
11
152.833
21
-144.539
0
LINE
8
Black
10
152.833
20
-144.539
11
154.283
21
-144.539
0
LINE
8
Black
10
154.283
20
-144.539
11
154.283
21
-145.689
0
LINE
8
Black
10
194.824
20
-144.679
11
193.87
21
-145.634
0
LINE
8
Black
10
193.87
20
-145.634
11
193.587
21
-145.351
0
LINE
8
Black
10
193.587
20
-145.351
11
194.542
21
-144.396
0
LINE
8
Black
10
194.542
20
-144.396
11
194.824
21
-144.679
0
LINE
8
Black
10
174.897
20
-145.476
11
173.897
21
-145.476
0
LINE
8
Black
10
173.897
20
-145.476
11
173.897
21
-144.876
0
LINE
8
Black
10
173.897
20
-144.876
11
174.897
21
-144.876
0
LINE
8
Black
10
174.897
20
-144.876
11
174.897
21
-145.476
0
LINE
8
Black
10
194.365
20
-144.22
11
193.41
21
-145.174
0
LINE
8
Black
10
193.41
20
-145.174
11
193.127
21
-144.891
0
LINE
8
Black
10
193.127
20
-144.891
11
194.082
21
-143.937
0
LINE
8
Black
10
194.082
20
-143.937
11
194.365
21
-144.22
0
LINE
8
Black
10
193.905
20
-143.76
11
192.951
21
-144.715
0
LINE
8
Black
10
192.951
20
-144.715
11
192.668
21
-144.432
0
LINE
8
Black
10
192.668
20
-144.432
11
193.622
21
-143.477
0
LINE
8
Black
10
193.622
20
-143.477
11
193.905
21
-143.76
0
LINE
8
Black
10
197.405
20
-143.442
11
196.415
21
-144.432
0
LINE
8
Black
10
196.415
20
-144.432
11
195.496
21
-143.513
0
LINE
8
Black
10
195.496
20
-143.513
11
196.486
21
-142.523
0
LINE
8
Black
10
196.486
20
-142.523
11
197.405
21
-143.442
0
LINE
8
Black
10
193.446
20
-143.3
11
192.491
21
-144.255
0
LINE
8
Black
10
192.491
20
-144.255
11
192.208
21
-143.972
0
LINE
8
Black
10
192.208
20
-143.972
11
193.163
21
-143.018
0
LINE
8
Black
10
193.163
20
-143.018
11
193.446
21
-143.3
0
LINE
8
Black
10
108.048
20
-143.676
11
106.898
21
-143.676
0
LINE
8
Black
10
106.898
20
-143.676
11
106.898
21
-142.226
0
LINE
8
Black
10
106.898
20
-142.226
11
108.048
21
-142.226
0
LINE
8
Black
10
108.048
20
-142.226
11
108.048
21
-143.676
0
LINE
8
Black
10
106.248
20
-143.676
11
105.098
21
-143.676
0
LINE
8
Black
10
105.098
20
-143.676
11
105.098
21
-142.226
0
LINE
8
Black
10
105.098
20
-142.226
11
106.248
21
-142.226
0
LINE
8
Black
10
106.248
20
-142.226
11
106.248
21
-143.676
0
LINE
8
Black
10
195.779
20
-141.815
11
194.789
21
-142.805
0
LINE
8
Black
10
194.789
20
-142.805
11
193.87
21
-141.886
0
LINE
8
Black
10
193.87
20
-141.886
11
194.86
21
-140.896
0
LINE
8
Black
10
194.86
20
-140.896
11
195.779
21
-141.815
0
LINE
8
Black
10
176.202
20
-142.533
11
175.052
21
-142.533
0
LINE
8
Black
10
175.052
20
-142.533
11
175.052
21
-141.083
0
LINE
8
Black
10
175.052
20
-141.083
11
176.202
21
-141.083
0
LINE
8
Black
10
176.202
20
-141.083
11
176.202
21
-142.533
0
LINE
8
Black
10
174.402
20
-142.533
11
173.252
21
-142.533
0
LINE
8
Black
10
173.252
20
-142.533
11
173.252
21
-141.083
0
LINE
8
Black
10
173.252
20
-141.083
11
174.402
21
-141.083
0
LINE
8
Black
10
174.402
20
-141.083
11
174.402
21
-142.533
0
LINE
8
Black
10
194.047
20
-140.154
11
193.127
21
-141.073
0
LINE
8
Black
10
193.127
20
-141.073
11
192.438
21
-140.384
0
LINE
8
Black
10
192.438
20
-140.384
11
193.357
21
-139.464
0
LINE
8
Black
10
193.357
20
-139.464
11
194.047
21
-140.154
0
LINE
8
Black
10
187.493
20
-140.059
11
186.343
21
-140.059
0
LINE
8
Black
10
186.343
20
-140.059
11
186.343
21
-138.609
0
LINE
8
Black
10
186.343
20
-138.609
11
187.493
21
-138.609
0
LINE
8
Black
10
187.493
20
-138.609
11
187.493
21
-140.059
0
LINE
8
Black
10
189.293
20
-140.059
11
188.143
21
-140.059
0
LINE
8
Black
10
188.143
20
-140.059
11
188.143
21
-138.609
0
LINE
8
Black
10
188.143
20
-138.609
11
189.293
21
-138.609
0
LINE
8
Black
10
189.293
20
-138.609
11
189.293
21
-140.059
0
LINE
8
Black
10
176.156
20
-139.531
11
175.006
21
-139.531
0
LINE
8
Black
10
175.006
20
-139.531
11
175.006
21
-138.081
0
LINE
8
Black
10
175.006
20
-138.081
11
176.156
21
-138.081
0
LINE
8
Black
10
176.156
20
-138.081
11
176.156
21
-139.531
0
LINE
8
Black
10
174.356
20
-139.531
11
173.206
21
-139.531
0
LINE
8
Black
10
173.206
20
-139.531
11
173.206
21
-138.081
0
LINE
8
Black
10
173.206
20
-138.081
11
174.356
21
-138.081
0
LINE
8
Black
10
174.356
20
-138.081
11
174.356
21
-139.531
0
LINE
8
Black
10
172.077
20
-132.475
11
170.927
21
-132.475
0
LINE
8
Black
10
170.927
20
-132.475
11
170.927
21
-131.025
0
LINE
8
Black
10
170.927
20
-131.025
11
172.077
21
-131.025
0
LINE
8
Black
10
172.077
20
-131.025
11
172.077
21
-132.475
0
LINE
8
Black
10
173.877
20
-132.475
11
172.727
21
-132.475
0
LINE
8
Black
10
172.727
20
-132.475
11
172.727
21
-131.025
0
LINE
8
Black
10
172.727
20
-131.025
11
173.877
21
-131.025
0
LINE
8
Black
10
173.877
20
-131.025
11
173.877
21
-132.475
0
LINE
8
Black
10
166.603
20
-132.459
11
165.453
21
-132.459
0
LINE
8
Black
10
165.453
20
-132.459
11
165.453
21
-131.009
0
LINE
8
Black
10
165.453
20
-131.009
11
166.603
21
-131.009
0
LINE
8
Black
10
166.603
20
-131.009
11
166.603
21
-132.459
0
LINE
8
Black
10
164.803
20
-132.459
11
163.653
21
-132.459
0
LINE
8
Black
10
163.653
20
-132.459
11
163.653
21
-131.009
0
LINE
8
Black
10
163.653
20
-131.009
11
164.803
21
-131.009
0
LINE
8
Black
10
164.803
20
-131.009
11
164.803
21
-132.459
0
LINE
8
Black
10
141.378
20
-131.687
11
140.228
21
-131.687
0
LINE
8
Black
10
140.228
20
-131.687
11
140.228
21
-130.237
0
LINE
8
Black
10
140.228
20
-130.237
11
141.378
21
-130.237
0
LINE
8
Black
10
141.378
20
-130.237
11
141.378
21
-131.687
0
LINE
8
Black
10
139.578
20
-131.687
11
138.428
21
-131.687
0
LINE
8
Black
10
138.428
20
-131.687
11
138.428
21
-130.237
0
LINE
8
Black
10
138.428
20
-130.237
11
139.578
21
-130.237
0
LINE
8
Black
10
139.578
20
-130.237
11
139.578
21
-131.687
0
LINE
8
Black
10
160.878
20
-129.684
11
160.428
21
-129.684
0
LINE
8
Black
10
160.428
20
-129.684
11
160.428
21
-128.334
0
LINE
8
Black
10
160.428
20
-128.334
11
160.878
21
-128.334
0
LINE
8
Black
10
160.878
20
-128.334
11
160.878
21
-129.684
0
LINE
8
Black
10
160.228
20
-129.684
11
159.778
21
-129.684
0
LINE
8
Black
10
159.778
20
-129.684
11
159.778
21
-128.334
0
LINE
8
Black
10
159.778
20
-128.334
11
160.228
21
-128.334
0
LINE
8
Black
10
160.228
20
-128.334
11
160.228
21
-129.684
0
LINE
8
Black
10
159.578
20
-129.684
11
159.128
21
-129.684
0
LINE
8
Black
10
159.128
20
-129.684
11
159.128
21
-128.334
0
LINE
8
Black
10
159.128
20
-128.334
11
159.578
21
-128.334
0
LINE
8
Black
10
159.578
20
-128.334
11
159.578
21
-129.684
0
LINE
8
Black
10
158.928
20
-129.684
11
158.478
21
-129.684
0
LINE
8
Black
10
158.478
20
-129.684
11
158.478
21
-128.334
0
LINE
8
Black
10
158.478
20
-128.334
11
158.928
21
-128.334
0
LINE
8
Black
10
158.928
20
-128.334
11
158.928
21
-129.684
0
LINE
8
Black
10
158.278
20
-129.684
11
157.828
21
-129.684
0
LINE
8
Black
10
157.828
20
-129.684
11
157.828
21
-128.334
0
LINE
8
Black
10
157.828
20
-128.334
11
158.278
21
-128.334
0
LINE
8
Black
10
158.278
20
-128.334
11
158.278
21
-129.684
0
LINE
8
Black
10
157.628
20
-129.684
11
157.178
21
-129.684
0
LINE
8
Black
10
157.178
20
-129.684
11
157.178
21
-128.334
0
LINE
8
Black
10
157.178
20
-128.334
11
157.628
21
-128.334
0
LINE
8
Black
10
157.628
20
-128.334
11
157.628
21
-129.684
0
LINE
8
Black
10
156.978
20
-129.684
11
156.528
21
-129.684
0
LINE
8
Black
10
156.528
20
-129.684
11
156.528
21
-128.334
0
LINE
8
Black
10
156.528
20
-128.334
11
156.978
21
-128.334
0
LINE
8
Black
10
156.978
20
-128.334
11
156.978
21
-129.684
0
LINE
8
Black
10
156.328
20
-129.684
11
155.878
21
-129.684
0
LINE
8
Black
10
155.878
20
-129.684
11
155.878
21
-128.334
0
LINE
8
Black
10
155.878
20
-128.334
11
156.328
21
-128.334
0
LINE
8
Black
10
156.328
20
-128.334
11
156.328
21
-129.684
0
LINE
8
Black
10
155.678
20
-129.684
11
155.228
21
-129.684
0
LINE
8
Black
10
155.228
20
-129.684
11
155.228
21
-128.334
0
LINE
8
Black
10
155.228
20
-128.334
11
155.678
21
-128.334
0
LINE
8
Black
10
155.678
20
-128.334
11
155.678
21
-129.684
0
LINE
8
Black
10
155.028
20
-129.684
11
154.578
21
-129.684
0
LINE
8
Black
10
154.578
20
-129.684
11
154.578
21
-128.334
0
LINE
8
Black
10
154.578
20
-128.334
11
155.028
21
-128.334
0
LINE
8
Black
10
155.028
20
-128.334
11
155.028
21
-129.684
0
LINE
8
Black
10
168.18
20
-127.278
11
167.03
21
-127.278
0
LINE
8
Black
10
167.03
20
-127.278
11
167.03
21
-125.828
0
LINE
8
Black
10
167.03
20
-125.828
11
168.18
21
-125.828
0
LINE
8
Black
10
168.18
20
-125.828
11
168.18
21
-127.278
0
LINE
8
Black
10
166.38
20
-127.278
11
165.23
21
-127.278
0
LINE
8
Black
10
165.23
20
-127.278
11
165.23
21
-125.828
0
LINE
8
Black
10
165.23
20
-125.828
11
166.38
21
-125.828
0
LINE
8
Black
10
166.38
20
-125.828
11
166.38
21
-127.278
0
LINE
8
Black
10
160.228
20
-123.934
11
159.778
21
-123.934
0
LINE
8
Black
10
159.778
20
-123.934
11
159.778
21
-122.584
0
LINE
8
Black
10
159.778
20
-122.584
11
160.228
21
-122.584
0
LINE
8
Black
10
160.228
20
-122.584
11
160.228
21
-123.934
0
LINE
8
Black
10
160.878
20
-123.934
11
160.428
21
-123.934
0
LINE
8
Black
10
160.428
20
-123.934
11
160.428
21
-122.584
0
LINE
8
Black
10
160.428
20
-122.584
11
160.878
21
-122.584
0
LINE
8
Black
10
160.878
20
-122.584
11
160.878
21
-123.934
0
LINE
8
Black
10
159.578
20
-123.934
11
159.128
21
-123.934
0
LINE
8
Black
10
159.128
20
-123.934
11
159.128
21
-122.584
0
LINE
8
Black
10
159.128
20
-122.584
11
159.578
21
-122.584
0
LINE
8
Black
10
159.578
20
-122.584
11
159.578
21
-123.934
0
LINE
8
Black
10
158.928
20
-123.934
11
158.478
21
-123.934
0
LINE
8
Black
10
158.478
20
-123.934
11
158.478
21
-122.584
0
LINE
8
Black
10
158.478
20
-122.584
11
158.928
21
-122.584
0
LINE
8
Black
10
158.928
20
-122.584
11
158.928
21
-123.934
0
LINE
8
Black
10
158.278
20
-123.934
11
157.828
21
-123.934
0
LINE
8
Black
10
157.828
20
-123.934
11
157.828
21
-122.584
0
LINE
8
Black
10
157.828
20
-122.584
11
158.278
21
-122.584
0
LINE
8
Black
10
158.278
20
-122.584
11
158.278
21
-123.934
0
LINE
8
Black
10
157.628
20
-123.934
11
157.178
21
-123.934
0
LINE
8
Black
10
157.178
20
-123.934
11
157.178
21
-122.584
0
LINE
8
Black
10
157.178
20
-122.584
11
157.628
21
-122.584
0
LINE
8
Black
10
157.628
20
-122.584
11
157.628
21
-123.934
0
LINE
8
Black
10
156.978
20
-123.934
11
156.528
21
-123.934
0
LINE
8
Black
10
156.528
20
-123.934
11
156.528
21
-122.584
0
LINE
8
Black
10
156.528
20
-122.584
11
156.978
21
-122.584
0
LINE
8
Black
10
156.978
20
-122.584
11
156.978
21
-123.934
0
LINE
8
Black
10
156.328
20
-123.934
11
155.878
21
-123.934
0
LINE
8
Black
10
155.878
20
-123.934
11
155.878
21
-122.584
0
LINE
8
Black
10
155.878
20
-122.584
11
156.328
21
-122.584
0
LINE
8
Black
10
156.328
20
-122.584
11
156.328
21
-123.934
0
LINE
8
Black
10
155.678
20
-123.934
11
155.228
21
-123.934
0
LINE
8
Black
10
155.228
20
-123.934
11
155.228
21
-122.584
0
LINE
8
Black
10
155.228
20
-122.584
11
155.678
21
-122.584
0
LINE
8
Black
10
155.678
20
-122.584
11
155.678
21
-123.934
0
LINE
8
Black
10
155.028
20
-123.934
11
154.578
21
-123.934
0
LINE
8
Black
10
154.578
20
-123.934
11
154.578
21
-122.584
0
LINE
8
Black
10
154.578
20
-122.584
11
155.028
21
-122.584
0
LINE
8
Black
10
155.028
20
-122.584
11
155.028
21
-123.934
0
LINE
8
Black
10
165.593
20
-120
11
164.043
21
-120
0
LINE
8
Black
10
164.043
20
-120
11
164.043
21
-119.4
0
LINE
8
Black
10
164.043
20
-119.4
11
165.593
21
-119.4
0
LINE
8
Black
10
165.593
20
-119.4
11
165.593
21
-120
0
LINE
8
Black
10
170.993
20
-120
11
169.443
21
-120
0
LINE
8
Black
10
169.443
20
-120
11
169.443
21
-119.4
0
LINE
8
Black
10
169.443
20
-119.4
11
170.993
21
-119.4
0
LINE
8
Black
10
170.993
20
-119.4
11
170.993
21
-120
0
LINE
8
Black
10
165.593
20
-118.73
11
164.043
21
-118.73
0
LINE
8
Black
10
164.043
20
-118.73
11
164.043
21
-118.13
0
LINE
8
Black
10
164.043
20
-118.13
11
165.593
21
-118.13
0
LINE
8
Black
10
165.593
20
-118.13
11
165.593
21
-118.73
0
LINE
8
Black
10
170.993
20
-118.73
11
169.443
21
-118.73
0
LINE
8
Black
10
169.443
20
-118.73
11
169.443
21
-118.13
0
LINE
8
Black
10
169.443
20
-118.13
11
170.993
21
-118.13
0
LINE
8
Black
10
170.993
20
-118.13
11
170.993
21
-118.73
0
LINE
8
Black
10
141.397
20
-118.689
11
139.847
21
-118.689
0
LINE
8
Black
10
139.847
20
-118.689
11
139.847
21
-118.089
0
LINE
8
Black
10
139.847
20
-118.089
11
141.397
21
-118.089
0
LINE
8
Black
10
141.397
20
-118.089
11
141.397
21
-118.689
0
LINE
8
Black
10
135.997
20
-118.689
11
134.447
21
-118.689
0
LINE
8
Black
10
134.447
20
-118.689
11
134.447
21
-118.089
0
LINE
8
Black
10
134.447
20
-118.089
11
135.997
21
-118.089
0
LINE
8
Black
10
135.997
20
-118.089
11
135.997
21
-118.689
0
LINE
8
Black
10
165.593
20
-117.46
11
164.043
21
-117.46
0
LINE
8
Black
10
164.043
20
-117.46
11
164.043
21
-116.86
0
LINE
8
Black
10
164.043
20
-116.86
11
165.593
21
-116.86
0
LINE
8
Black
10
165.593
20
-116.86
11
165.593
21
-117.46
0
LINE
8
Black
10
170.993
20
-117.46
11
169.443
21
-117.46
0
LINE
8
Black
10
169.443
20
-117.46
11
169.443
21
-116.86
0
LINE
8
Black
10
169.443
20
-116.86
11
170.993
21
-116.86
0
LINE
8
Black
10
170.993
20
-116.86
11
170.993
21
-117.46
0
LINE
8
Black
10
141.397
20
-117.419
11
139.847
21
-117.419
0
LINE
8
Black
10
139.847
20
-117.419
11
139.847
21
-116.819
0
LINE
8
Black
10
139.847
20
-116.819
11
141.397
21
-116.819
0
LINE
8
Black
10
141.397
20
-116.819
11
141.397
21
-117.419
0
LINE
8
Black
10
135.997
20
-117.419
11
134.447
21
-117.419
0
LINE
8
Black
10
134.447
20
-117.419
11
134.447
21
-116.819
0
LINE
8
Black
10
134.447
20
-116.819
11
135.997
21
-116.819
0
LINE
8
Black
10
135.997
20
-116.819
11
135.997
21
-117.419
0
LINE
8
Black
10
117.734
20
-116.803
11
116.584
21
-116.803
0
LINE
8
Black
10
116.584
20
-116.803
11
116.584
21
-115.353
0
LINE
8
Black
10
116.584
20
-115.353
11
117.734
21
-115.353
0
LINE
8
Black
10
117.734
20
-115.353
11
117.734
21
-116.803
0
LINE
8
Black
10
119.534
20
-116.803
11
118.384
21
-116.803
0
LINE
8
Black
10
118.384
20
-116.803
11
118.384
21
-115.353
0
LINE
8
Black
10
118.384
20
-115.353
11
119.534
21
-115.353
0
LINE
8
Black
10
119.534
20
-115.353
11
119.534
21
-116.803
0
LINE
8
Black
10
180.371
20
-116.193
11
179.221
21
-116.193
0
LINE
8
Black
10
179.221
20
-116.193
11
179.221
21
-114.743
0
LINE
8
Black
10
179.221
20
-114.743
11
180.371
21
-114.743
0
LINE
8
Black
10
180.371
20
-114.743
11
180.371
21
-116.193
0
LINE
8
Black
10
182.171
20
-116.193
11
181.021
21
-116.193
0
LINE
8
Black
10
181.021
20
-116.193
11
181.021
21
-114.743
0
LINE
8
Black
10
181.021
20
-114.743
11
182.171
21
-114.743
0
LINE
8
Black
10
182.171
20
-114.743
11
182.171
21
-116.193
0
LINE
8
Black
10
170.993
20
-116.19
11
169.443
21
-116.19
0
LINE
8
Black
10
169.443
20
-116.19
11
169.443
21
-115.59
0
LINE
8
Black
10
169.443
20
-115.59
11
170.993
21
-115.59
0
LINE
8
Black
10
170.993
20
-115.59
11
170.993
21
-116.19
0
LINE
8
Black
10
165.593
20
-116.19
11
164.043
21
-116.19
0
LINE
8
Black
10
164.043
20
-116.19
11
164.043
21
-115.59
0
LINE
8
Black
10
164.043
20
-115.59
11
165.593
21
-115.59
0
LINE
8
Black
10
165.593
20
-115.59
11
165.593
21
-116.19
0
LINE
8
Black
10
141.397
20
-116.149
11
139.847
21
-116.149
0
LINE
8
Black
10
139.847
20
-116.149
11
139.847
21
-115.549
0
LINE
8
Black
10
139.847
20
-115.549
11
141.397
21
-115.549
0
LINE
8
Black
10
141.397
20
-115.549
11
141.397
21
-116.149
0
LINE
8
Black
10
135.997
20
-116.149
11
134.447
21
-116.149
0
LINE
8
Black
10
134.447
20
-116.149
11
134.447
21
-115.549
0
LINE
8
Black
10
134.447
20
-115.549
11
135.997
21
-115.549
0
LINE
8
Black
10
135.997
20
-115.549
11
135.997
21
-116.149
0
LINE
8
Black
10
165.593
20
-114.92
11
164.043
21
-114.92
0
LINE
8
Black
10
164.043
20
-114.92
11
164.043
21
-114.32
0
LINE
8
Black
10
164.043
20
-114.32
11
165.593
21
-114.32
0
LINE
8
Black
10
165.593
20
-114.32
11
165.593
21
-114.92
0
LINE
8
Black
10
170.993
20
-114.92
11
169.443
21
-114.92
0
LINE
8
Black
10
169.443
20
-114.92
11
169.443
21
-114.32
0
LINE
8
Black
10
169.443
20
-114.32
11
170.993
21
-114.32
0
LINE
8
Black
10
170.993
20
-114.32
11
170.993
21
-114.92
0
LINE
8
Black
10
141.397
20
-114.879
11
139.847
21
-114.879
0
LINE
8
Black
10
139.847
20
-114.879
11
139.847
21
-114.279
0
LINE
8
Black
10
139.847
20
-114.279
11
141.397
21
-114.279
0
LINE
8
Black
10
141.397
20
-114.279
11
141.397
21
-114.879
0
LINE
8
Black
10
135.997
20
-114.879
11
134.447
21
-114.879
0
LINE
8
Black
10
134.447
20
-114.879
11
134.447
21
-114.279
0
LINE
8
Black
10
134.447
20
-114.279
11
135.997
21
-114.279
0
LINE
8
Black
10
135.997
20
-114.279
11
135.997
21
-114.879
0
LINE
8
Black
10
165.593
20
-113.65
11
164.043
21
-113.65
0
LINE
8
Black
10
164.043
20
-113.65
11
164.043
21
-113.05
0
LINE
8
Black
10
164.043
20
-113.05
11
165.593
21
-113.05
0
LINE
8
Black
10
165.593
20
-113.05
11
165.593
21
-113.65
0
LINE
8
Black
10
170.993
20
-113.65
11
169.443
21
-113.65
0
LINE
8
Black
10
169.443
20
-113.65
11
169.443
21
-113.05
0
LINE
8
Black
10
169.443
20
-113.05
11
170.993
21
-113.05
0
LINE
8
Black
10
170.993
20
-113.05
11
170.993
21
-113.65
0
LINE
8
Black
10
141.397
20
-113.609
11
139.847
21
-113.609
0
LINE
8
Black
10
139.847
20
-113.609
11
139.847
21
-113.009
0
LINE
8
Black
10
139.847
20
-113.009
11
141.397
21
-113.009
0
LINE
8
Black
10
141.397
20
-113.009
11
141.397
21
-113.609
0
LINE
8
Black
10
135.997
20
-113.609
11
134.447
21
-113.609
0
LINE
8
Black
10
134.447
20
-113.609
11
134.447
21
-113.009
0
LINE
8
Black
10
134.447
20
-113.009
11
135.997
21
-113.009
0
LINE
8
Black
10
135.997
20
-113.009
11
135.997
21
-113.609
0
LINE
8
Black
10
165.593
20
-112.38
11
164.043
21
-112.38
0
LINE
8
Black
10
164.043
20
-112.38
11
164.043
21
-111.78
0
LINE
8
Black
10
164.043
20
-111.78
11
165.593
21
-111.78
0
LINE
8
Black
10
165.593
20
-111.78
11
165.593
21
-112.38
0
LINE
8
Black
10
170.993
20
-112.38
11
169.443
21
-112.38
0
LINE
8
Black
10
169.443
20
-112.38
11
169.443
21
-111.78
0
LINE
8
Black
10
169.443
20
-111.78
11
170.993
21
-111.78
0
LINE
8
Black
10
170.993
20
-111.78
11
170.993
21
-112.38
0
LINE
8
Black
10
141.397
20
-112.339
11
139.847
21
-112.339
0
LINE
8
Black
10
139.847
20
-112.339
11
139.847
21
-111.739
0
LINE
8
Black
10
139.847
20
-111.739
11
141.397
21
-111.739
0
LINE
8
Black
10
141.397
20
-111.739
11
141.397
21
-112.339
0
LINE
8
Black
10
135.997
20
-112.339
11
134.447
21
-112.339
0
LINE
8
Black
10
134.447
20
-112.339
11
134.447
21
-111.739
0
LINE
8
Black
10
134.447
20
-111.739
11
135.997
21
-111.739
0
LINE
8
Black
10
135.997
20
-111.739
11
135.997
21
-112.339
0
LINE
8
Black
10
170.993
20
-111.11
11
169.443
21
-111.11
0
LINE
8
Black
10
169.443
20
-111.11
11
169.443
21
-110.51
0
LINE
8
Black
10
169.443
20
-110.51
11
170.993
21
-110.51
0
LINE
8
Black
10
170.993
20
-110.51
11
170.993
21
-111.11
0
LINE
8
Black
10
165.593
20
-111.11
11
164.043
21
-111.11
0
LINE
8
Black
10
164.043
20
-111.11
11
164.043
21
-110.51
0
LINE
8
Black
10
164.043
20
-110.51
11
165.593
21
-110.51
0
LINE
8
Black
10
165.593
20
-110.51
11
165.593
21
-111.11
0
LINE
8
Black
10
141.397
20
-111.069
11
139.847
21
-111.069
0
LINE
8
Black
10
139.847
20
-111.069
11
139.847
21
-110.469
0
LINE
8
Black
10
139.847
20
-110.469
11
141.397
21
-110.469
0
LINE
8
Black
10
141.397
20
-110.469
11
141.397
21
-111.069
0
LINE
8
Black
10
135.997
20
-111.069
11
134.447
21
-111.069
0
LINE
8
Black
10
134.447
20
-111.069
11
134.447
21
-110.469
0
LINE
8
Black
10
134.447
20
-110.469
11
135.997
21
-110.469
0
LINE
8
Black
10
135.997
20
-110.469
11
135.997
21
-111.069
0
LINE
8
Black
10
141.397
20
-109.799
11
139.847
21
-109.799
0
LINE
8
Black
10
139.847
20
-109.799
11
139.847
21
-109.199
0
LINE
8
Black
10
139.847
20
-109.199
11
141.397
21
-109.199
0
LINE
8
Black
10
141.397
20
-109.199
11
141.397
21
-109.799
0
LINE
8
Black
10
135.997
20
-109.799
11
134.447
21
-109.799
0
LINE
8
Black
10
134.447
20
-109.799
11
134.447
21
-109.199
0
LINE
8
Black
10
134.447
20
-109.199
11
135.997
21
-109.199
0
LINE
8
Black
10
135.997
20
-109.199
11
135.997
21
-109.799
0
LINE
8
Black
10
158.285
20
-105.386
11
157.135
21
-105.386
0
LINE
8
Black
10
157.135
20
-105.386
11
157.135
21
-103.936
0
LINE
8
Black
10
157.135
20
-103.936
11
158.285
21
-103.936
0
LINE
8
Black
10
158.285
20
-103.936
11
158.285
21
-105.386
0
LINE
8
Black
10
160.085
20
-105.386
11
158.935
21
-105.386
0
LINE
8
Black
10
158.935
20
-105.386
11
158.935
21
-103.936
0
LINE
8
Black
10
158.935
20
-103.936
11
160.085
21
-103.936
0
LINE
8
Black
10
160.085
20
-103.936
11
160.085
21
-105.386
0
LINE
8
Black
10
139.903
20
-102.02
11
138.753
21
-102.02
0
LINE
8
Black
10
138.753
20
-102.02
11
138.753
21
-100.57
0
LINE
8
Black
10
138.753
20
-100.57
11
139.903
21
-100.57
0
LINE
8
Black
10
139.903
20
-100.57
11
139.903
21
-102.02
0
LINE
8
Black
10
141.703
20
-102.02
11
140.553
21
-102.02
0
LINE
8
Black
10
140.553
20
-102.02
11
140.553
21
-100.57
0
LINE
8
Black
10
140.553
20
-100.57
11
141.703
21
-100.57
0
LINE
8
Black
10
141.703
20
-100.57
11
141.703
21
-102.02
0
LINE
8
Black
10
129.339
20
-91.657
11
128.189
21
-91.657
0
LINE
8
Black
10
128.189
20
-91.657
11
128.189
21
-90.207
0
LINE
8
Black
10
128.189
20
-90.207
11
129.339
21
-90.207
0
LINE
8
Black
10
129.339
20
-90.207
11
129.339
21
-91.657
0
LINE
8
Black
10
127.539
20
-91.657
11
126.389
21
-91.657
0
LINE
8
Black
10
126.389
20
-91.657
11
126.389
21
-90.207
0
LINE
8
Black
10
126.389
20
-90.207
11
127.539
21
-90.207
0
LINE
8
Black
10
127.539
20
-90.207
11
127.539
21
-91.657
0
LINE
8
Black
10
172.95
20
-91.3928
11
171.8
21
-91.3928
0
LINE
8
Black
10
171.8
20
-91.3928
11
171.8
21
-89.9428
0
LINE
8
Black
10
171.8
20
-89.9428
11
172.95
21
-89.9428
0
LINE
8
Black
10
172.95
20
-89.9428
11
172.95
21
-91.3928
0
LINE
8
Black
10
171.15
20
-91.3928
11
170
21
-91.3928
0
LINE
8
Black
10
170
20
-91.3928
11
170
21
-89.9428
0
LINE
8
Black
10
170
20
-89.9428
11
171.15
21
-89.9428
0
LINE
8
Black
10
171.15
20
-89.9428
11
171.15
21
-91.3928
0
LINE
8
Black
10
154.209
20
-80.227
11
153.059
21
-80.227
0
LINE
8
Black
10
153.059
20
-80.227
11
153.059
21
-78.777
0
LINE
8
Black
10
153.059
20
-78.777
11
154.209
21
-78.777
0
LINE
8
Black
10
154.209
20
-78.777
11
154.209
21
-80.227
0
LINE
8
Black
10
156.009
20
-80.227
11
154.859
21
-80.227
0
LINE
8
Black
10
154.859
20
-80.227
11
154.859
21
-78.777
0
LINE
8
Black
10
154.859
20
-78.777
11
156.009
21
-78.777
0
LINE
8
Black
10
156.009
20
-78.777
11
156.009
21
-80.227
0
LINE
8
Black
10
143.642
20
-80.0746
11
142.492
21
-80.0746
0
LINE
8
Black
10
142.492
20
-80.0746
11
142.492
21
-78.6246
0
LINE
8
Black
10
142.492
20
-78.6246
11
143.642
21
-78.6246
0
LINE
8
Black
10
143.642
20
-78.6246
11
143.642
21
-80.0746
0
LINE
8
Black
10
145.442
20
-80.0746
11
144.292
21
-80.0746
0
LINE
8
Black
10
144.292
20
-80.0746
11
144.292
21
-78.6246
0
LINE
8
Black
10
144.292
20
-78.6246
11
145.442
21
-78.6246
0
LINE
8
Black
10
145.442
20
-78.6246
11
145.442
21
-80.0746
0
LINE
8
Black
10
139.46
20
-66.765
11
138.31
21
-66.765
0
LINE
8
Black
10
138.31
20
-66.765
11
138.31
21
-65.315
0
LINE
8
Black
10
138.31
20
-65.315
11
139.46
21
-65.315
0
LINE
8
Black
10
139.46
20
-65.315
11
139.46
21
-66.765
0
LINE
8
Black
10
137.66
20
-66.765
11
136.511
21
-66.765
0
LINE
8
Black
10
136.511
20
-66.765
11
136.511
21
-65.315
0
LINE
8
Black
10
136.511
20
-65.315
11
137.66
21
-65.315
0
LINE
8
Black
10
137.66
20
-65.315
11
137.66
21
-66.765
0
LINE
8
Black
10
163.324
20
-66.6075
11
162.174
21
-66.6075
0
LINE
8
Black
10
162.174
20
-66.6075
11
162.174
21
-65.1575
0
LINE
8
Black
10
162.174
20
-65.1575
11
163.324
21
-65.1575
0
LINE
8
Black
10
163.324
20
-65.1575
11
163.324
21
-66.6075
0
LINE
8
Black
10
161.524
20
-66.6075
11
160.374
21
-66.6075
0
LINE
8
Black
10
160.374
20
-66.6075
11
160.374
21
-65.1575
0
LINE
8
Black
10
160.374
20
-65.1575
11
161.524
21
-65.1575
0
LINE
8
Black
10
161.524
20
-65.1575
11
161.524
21
-66.6075
0
LINE
8
Black
10
147.779
20
-66.0538
11
146.629
21
-66.0538
0
LINE
8
Black
10
146.629
20
-66.0538
11
146.629
21
-64.6038
0
LINE
8
Black
10
146.629
20
-64.6038
11
147.779
21
-64.6038
0
LINE
8
Black
10
147.779
20
-64.6038
11
147.779
21
-66.0538
0
LINE
8
Black
10
145.979
20
-66.0538
11
144.829
21
-66.0538
0
LINE
8
Black
10
144.829
20
-66.0538
11
144.829
21
-64.6038
0
LINE
8
Black
10
144.829
20
-64.6038
11
145.979
21
-64.6038
0
LINE
8
Black
10
145.979
20
-64.6038
11
145.979
21
-66.0538
0
LINE
8
Black
10
153.416
20
-63.1785
11
152.266
21
-63.1785
0
LINE
8
Black
10
152.266
20
-63.1785
11
152.266
21
-61.7285
0
LINE
8
Black
10
152.266
20
-61.7285
11
153.416
21
-61.7285
0
LINE
8
Black
10
153.416
20
-61.7285
11
153.416
21
-63.1785
0
LINE
8
Black
10
155.216
20
-63.1785
11
154.066
21
-63.1785
0
LINE
8
Black
10
154.066
20
-63.1785
11
154.066
21
-61.7285
0
LINE
8
Black
10
154.066
20
-61.7285
11
155.216
21
-61.7285
0
LINE
8
Black
10
155.216
20
-61.7285
11
155.216
21
-63.1785
0
LINE
8
Black
10
147.029
20
-59.5902
11
145.579
21
-59.5902
0
LINE
8
Black
10
145.579
20
-59.5902
11
145.579
21
-58.4402
0
LINE
8
Black
10
145.579
20
-58.4402
11
147.029
21
-58.4402
0
LINE
8
Black
10
147.029
20
-58.4402
11
147.029
21
-59.5902
0
LINE
8
Black
10
154.197
20
-59.575
11
152.747
21
-59.575
0
LINE
8
Black
10
152.747
20
-59.575
11
152.747
21
-58.425
0
LINE
8
Black
10
152.747
20
-58.425
11
154.197
21
-58.425
0
LINE
8
Black
10
154.197
20
-58.425
11
154.197
21
-59.575
0
LINE
8
Black
10
150.839
20
-59.5648
11
149.389
21
-59.5648
0
LINE
8
Black
10
149.389
20
-59.5648
11
149.389
21
-58.4148
0
LINE
8
Black
10
149.389
20
-58.4148
11
150.839
21
-58.4148
0
LINE
8
Black
10
150.839
20
-58.4148
11
150.839
21
-59.5648
0
LINE
8
Black
10
147.029
20
-57.7902
11
145.579
21
-57.7902
0
LINE
8
Black
10
145.579
20
-57.7902
11
145.579
21
-56.6402
0
LINE
8
Black
10
145.579
20
-56.6402
11
147.029
21
-56.6402
0
LINE
8
Black
10
147.029
20
-56.6402
11
147.029
21
-57.7902
0
LINE
8
Black
10
154.197
20
-57.775
11
152.747
21
-57.775
0
LINE
8
Black
10
152.747
20
-57.775
11
152.747
21
-56.625
0
LINE
8
Black
10
152.747
20
-56.625
11
154.197
21
-56.625
0
LINE
8
Black
10
154.197
20
-56.625
11
154.197
21
-57.775
0
LINE
8
Black
10
150.839
20
-57.7648
11
149.389
21
-57.7648
0
LINE
8
Black
10
149.389
20
-57.7648
11
149.389
21
-56.6148
0
LINE
8
Black
10
149.389
20
-56.6148
11
150.839
21
-56.6148
0
LINE
8
Black
10
150.839
20
-56.6148
11
150.839
21
-57.7648
  0
ENDSEC
  0
EOF
